<?xml version="1.0" encoding="UTF-8"?>
<!-- Neumorphic Volume Knob - Custom Design for OpenRig -->
<svg xmlns="http://www.w3.org/2000/svg" width="100" height="100" viewBox="0 0 100 100">
  <defs>
    <!-- Neumorphic shadow effects -->
    <filter id="shadow-inset" x="-20%" y="-20%" width="140%" height="140%">
      <feOffset dx="2" dy="2" in="SourceAlpha" result="offset-down"/>
      <feGaussianBlur stdDeviation="3" in="offset-down" result="blur-down"/>
      <feFlood flood-color="#000000" flood-opacity="0.3" result="color-down"/>
      <feComposite in="color-down" in2="blur-down" operator="in" result="shadow-down"/>
      <feOffset dx="-2" dy="-2" in="SourceAlpha" result="offset-up"/>
      <feGaussianBlur stdDeviation="3" in="offset-up" result="blur-up"/>
      <feFlood flood-color="#ffffff" flood-opacity="0.5" result="color-up"/>
      <feComposite in="color-up" in2="blur-up" operator="in" result="shadow-up"/>
      <feMerge>
        <feMergeNode in="shadow-down"/>
        <feMergeNode in="shadow-up"/>
        <feMergeNode in="SourceGraphic"/>
      </feMerge>
    </filter>
    <linearGradient id="knob-gradient" x1="0%" y1="0%" x2="100%" y2="100%">
      <stop offset="0%" style="stop-color:#4a4a4a"/>
      <stop offset="50%" style="stop-color:#3a3a3a"/>
      <stop offset="100%" style="stop-color:#2a2a2a"/>
    </linearGradient>
    <radialGradient id="knob-highlight" cx="30%" cy="30%" r="50%">
      <stop offset="0%" style="stop-color:#666666;stop-opacity:0.6"/>
      <stop offset="100%" style="stop-color:#333333;stop-opacity:0"/>
    </radialGradient>
  </defs>
  
  <!-- Outer ring (track) -->
  <circle cx="50" cy="50" r="45" fill="none" stroke="#555555" stroke-width="4" opacity="0.5"/>
  
  <!-- Knob base with neumorphic effect -->
  <circle cx="50" cy="50" r="38" fill="url(#knob-gradient)" filter="url(#shadow-inset)"/>
  
  <!-- Inner highlight -->
  <circle cx="50" cy="50" r="35" fill="url(#knob-highlight)"/>
  
  <!-- Center cap -->
  <circle cx="50" cy="50" r="15" fill="#222222"/>
  <circle cx="50" cy="50" r="12" fill="#333333"/>
  
  <!-- Pointer indicator -->
  <line x1="50" y1="20" x2="50" y2="35" stroke="#00ccff" stroke-width="3" stroke-linecap="round" id="knob-pointer"/>
  
  <!-- Tick marks -->
  <g stroke="#666666" stroke-width="1" opacity="0.7">
    <line x1="50" y1="8" x2="50" y2="12" transform="rotate(-135 50 50)"/>
    <line x1="50" y1="8" x2="50" y2="12" transform="rotate(-90 50 50)"/>
    <line x1="50" y1="8" x2="50" y2="12" transform="rotate(-45 50 50)"/>
    <line x1="50" y1="8" x2="50" y2="12" transform="rotate(0 50 50)"/>
    <line x1="50" y1="8" x2="50" y2="12" transform="rotate(45 50 50)"/>
    <line x1="50" y1="8" x2="50" y2="12" transform="rotate(90 50 50)"/>
    <line x1="50" y1="8" x2="50" y2="12" transform="rotate(135 50 50)"/>
  </g>
</svg>
